<mxfile host="app.diagrams.net" agent="Mozilla/5.0 (Windows NT 10.0; Win64; x64) AppleWebKit/537.36 (KHTML, like Gecko) Chrome/135.0.0.0 Safari/537.36" version="26.2.14">
  <diagram name="Page-1" id="JSEZbh8lpDxf7KuHAAuS">
    <mxGraphModel dx="2745" dy="2122" grid="1" gridSize="10" guides="1" tooltips="1" connect="1" arrows="1" fold="1" page="1" pageScale="1" pageWidth="850" pageHeight="1100" math="0" shadow="0">
      <root>
        <mxCell id="0" />
        <mxCell id="1" parent="0" />
        <mxCell id="5F_fIKwz35ixUrEZGMle-4" style="edgeStyle=orthogonalEdgeStyle;rounded=0;orthogonalLoop=1;jettySize=auto;html=1;entryX=1;entryY=0.5;entryDx=0;entryDy=0;" edge="1" parent="1" source="5F_fIKwz35ixUrEZGMle-1" target="5F_fIKwz35ixUrEZGMle-2">
          <mxGeometry relative="1" as="geometry" />
        </mxCell>
        <mxCell id="5F_fIKwz35ixUrEZGMle-7" style="edgeStyle=orthogonalEdgeStyle;rounded=0;orthogonalLoop=1;jettySize=auto;html=1;entryX=0.5;entryY=0;entryDx=0;entryDy=0;" edge="1" parent="1" source="5F_fIKwz35ixUrEZGMle-1" target="5F_fIKwz35ixUrEZGMle-6">
          <mxGeometry relative="1" as="geometry" />
        </mxCell>
        <mxCell id="5F_fIKwz35ixUrEZGMle-1" value="&lt;b&gt;GameManager&lt;/b&gt;&lt;div&gt;Handles the main game loop.&amp;nbsp;&lt;/div&gt;&lt;div style=&quot;text-align: left;&quot;&gt;&lt;b&gt;Fields:&lt;/b&gt;&lt;/div&gt;&lt;div style=&quot;text-align: left;&quot;&gt;GameState game&lt;/div&gt;&lt;div style=&quot;text-align: left;&quot;&gt;&lt;b&gt;Methods:&lt;/b&gt;&lt;/div&gt;&lt;div style=&quot;text-align: left;&quot;&gt;Start() - Begins the program loop&lt;/div&gt;&lt;div style=&quot;text-align: left;&quot;&gt;MainMenu() - Brings up the main game menu on the screen&lt;/div&gt;&lt;div style=&quot;text-align: left;&quot;&gt;Setup() - Populates the player list in game and calls InitialDeal&lt;/div&gt;&lt;div style=&quot;text-align: left;&quot;&gt;IntialDeal() - Deals 2 cards to everyone, with one of the dealer&#39;s cards being hidden.&lt;/div&gt;&lt;div style=&quot;text-align: left;&quot;&gt;GetPlayerBets() - Collects each player&#39;s initial bets&lt;/div&gt;&lt;div style=&quot;text-align: left;&quot;&gt;PlayPlayerTurns() - Prompts each player to play their turn&lt;/div&gt;&lt;div style=&quot;text-align: left;&quot;&gt;PlayDealerTurn() - Plays the dealer&#39;s turn&lt;/div&gt;&lt;div style=&quot;text-align: left;&quot;&gt;DisplayDealerAndPlayers() - Displays each player and their associated info on the screen&lt;/div&gt;&lt;div style=&quot;text-align: left;&quot;&gt;Payout() - Handles the payout for each player depending on outcome&lt;/div&gt;&lt;div style=&quot;text-align: left;&quot;&gt;Hit() - Draws a card from the deck and adds it to the passed player&#39;s hand, then sorts the hand.&lt;/div&gt;&lt;div style=&quot;text-align: left;&quot;&gt;&lt;br&gt;&lt;/div&gt;&lt;div style=&quot;text-align: left;&quot;&gt;&lt;br&gt;&lt;/div&gt;&lt;div style=&quot;text-align: left;&quot;&gt;&lt;br&gt;&lt;/div&gt;" style="whiteSpace=wrap;html=1;aspect=fixed;fillColor=#0050ef;fontColor=#ffffff;strokeColor=#001DBC;rounded=1;glass=0;shadow=0;fontFamily=Lucida Console;fontSize=12;" vertex="1" parent="1">
          <mxGeometry x="-210" y="-340" width="390" height="390" as="geometry" />
        </mxCell>
        <mxCell id="5F_fIKwz35ixUrEZGMle-2" value="&lt;b&gt;GameRules&lt;/b&gt;&lt;div&gt;Stores the methods associated with game rules&lt;/div&gt;&lt;div style=&quot;text-align: left;&quot;&gt;&lt;b&gt;No fields.&lt;/b&gt;&lt;/div&gt;&lt;div style=&quot;text-align: left;&quot;&gt;&lt;b&gt;Methods:&lt;/b&gt;&lt;/div&gt;&lt;div style=&quot;text-align: left;&quot;&gt;Bust(Player player) - Checks if a player has busted&lt;/div&gt;&lt;div style=&quot;text-align: left;&quot;&gt;BlackJack(Player player) - Checks if a player has obtained a Blackjack&lt;/div&gt;&lt;div style=&quot;text-align: left;&quot;&gt;Outcome(Player player, Player dealer) - Checks the outcome of a match and returns it as a string (win, loss, tie, blackjack)&lt;/div&gt;&lt;div style=&quot;text-align: left;&quot;&gt;Payout(Player player, string outcome) - Determines the amount to pay back to player based on the game outcome&lt;/div&gt;&lt;div style=&quot;text-align: left;&quot;&gt;&lt;br&gt;&lt;/div&gt;" style="rounded=1;whiteSpace=wrap;html=1;fillColor=#6d8764;fontColor=#ffffff;strokeColor=#3A5431;fontFamily=Lucida Console;" vertex="1" parent="1">
          <mxGeometry x="-640" y="-230" width="350" height="260" as="geometry" />
        </mxCell>
        <mxCell id="5F_fIKwz35ixUrEZGMle-12" value="" style="edgeStyle=orthogonalEdgeStyle;rounded=0;orthogonalLoop=1;jettySize=auto;html=1;" edge="1" parent="1" source="5F_fIKwz35ixUrEZGMle-6" target="5F_fIKwz35ixUrEZGMle-9">
          <mxGeometry relative="1" as="geometry" />
        </mxCell>
        <mxCell id="5F_fIKwz35ixUrEZGMle-18" value="" style="edgeStyle=orthogonalEdgeStyle;rounded=0;orthogonalLoop=1;jettySize=auto;html=1;" edge="1" parent="1" source="5F_fIKwz35ixUrEZGMle-6" target="5F_fIKwz35ixUrEZGMle-17">
          <mxGeometry relative="1" as="geometry" />
        </mxCell>
        <mxCell id="5F_fIKwz35ixUrEZGMle-26" value="" style="edgeStyle=orthogonalEdgeStyle;rounded=0;orthogonalLoop=1;jettySize=auto;html=1;" edge="1" parent="1" source="5F_fIKwz35ixUrEZGMle-6" target="5F_fIKwz35ixUrEZGMle-25">
          <mxGeometry relative="1" as="geometry" />
        </mxCell>
        <mxCell id="5F_fIKwz35ixUrEZGMle-6" value="&lt;font face=&quot;Lucida Console&quot;&gt;GameState&lt;/font&gt;&lt;div&gt;&lt;font face=&quot;Lucida Console&quot;&gt;Stores the current game variables and is responsible for saving/loading them&lt;/font&gt;&lt;/div&gt;&lt;div style=&quot;text-align: left;&quot;&gt;&lt;font face=&quot;Lucida Console&quot;&gt;&lt;b&gt;Fields:&lt;/b&gt;&lt;/font&gt;&lt;/div&gt;&lt;div style=&quot;text-align: left;&quot;&gt;&lt;font face=&quot;Lucida Console&quot;&gt;List&amp;lt;Player&amp;gt; players&lt;/font&gt;&lt;/div&gt;&lt;div style=&quot;text-align: left;&quot;&gt;&lt;font face=&quot;Lucida Console&quot;&gt;Player dealer;&lt;/font&gt;&lt;/div&gt;&lt;div style=&quot;text-align: left;&quot;&gt;&lt;font face=&quot;Lucida Console&quot;&gt;Deck cardDeck&lt;/font&gt;&lt;/div&gt;&lt;div style=&quot;text-align: left;&quot;&gt;&lt;font face=&quot;Lucida Console&quot;&gt;int turn;&lt;/font&gt;&lt;/div&gt;&lt;div style=&quot;text-align: left;&quot;&gt;&lt;font face=&quot;Lucida Console&quot;&gt;Leaderboard leaderboard&lt;/font&gt;&lt;/div&gt;&lt;div style=&quot;text-align: left;&quot;&gt;&lt;font face=&quot;Lucida Console&quot;&gt;&lt;b&gt;Methods:&lt;/b&gt;&lt;/font&gt;&lt;/div&gt;&lt;div style=&quot;text-align: left;&quot;&gt;&lt;font face=&quot;Lucida Console&quot;&gt;Save() - Saves the current game information&lt;/font&gt;&lt;/div&gt;&lt;div style=&quot;text-align: left;&quot;&gt;&lt;font face=&quot;Lucida Console&quot;&gt;Load() - Loads game information&lt;/font&gt;&lt;/div&gt;&lt;div style=&quot;text-align: left;&quot;&gt;&lt;font face=&quot;Lucida Console&quot;&gt;&lt;br&gt;&lt;/font&gt;&lt;/div&gt;&lt;div style=&quot;text-align: left;&quot;&gt;&lt;font face=&quot;Lucida Console&quot;&gt;&lt;br&gt;&lt;/font&gt;&lt;/div&gt;" style="rounded=1;whiteSpace=wrap;html=1;fillColor=#a0522d;fontColor=#ffffff;strokeColor=#6D1F00;fontSize=15;" vertex="1" parent="1">
          <mxGeometry x="-225" y="120" width="420" height="350" as="geometry" />
        </mxCell>
        <mxCell id="5F_fIKwz35ixUrEZGMle-13" value="" style="edgeStyle=orthogonalEdgeStyle;rounded=0;orthogonalLoop=1;jettySize=auto;html=1;" edge="1" parent="1" source="5F_fIKwz35ixUrEZGMle-9" target="5F_fIKwz35ixUrEZGMle-11">
          <mxGeometry relative="1" as="geometry" />
        </mxCell>
        <mxCell id="5F_fIKwz35ixUrEZGMle-16" value="" style="edgeStyle=orthogonalEdgeStyle;rounded=0;orthogonalLoop=1;jettySize=auto;html=1;" edge="1" parent="1" source="5F_fIKwz35ixUrEZGMle-9" target="5F_fIKwz35ixUrEZGMle-14">
          <mxGeometry relative="1" as="geometry" />
        </mxCell>
        <mxCell id="5F_fIKwz35ixUrEZGMle-9" value="&lt;b&gt;Player&lt;/b&gt;&lt;div&gt;Stores information related to a single player&amp;nbsp;&lt;/div&gt;&lt;div style=&quot;text-align: left;&quot;&gt;&lt;b&gt;Fields&lt;/b&gt;&lt;/div&gt;&lt;div style=&quot;text-align: left;&quot;&gt;Hand hand&lt;/div&gt;&lt;div style=&quot;text-align: left;&quot;&gt;PlayerStats stats&lt;/div&gt;&lt;div style=&quot;text-align: left;&quot;&gt;double balance&lt;/div&gt;&lt;div style=&quot;text-align: left;&quot;&gt;double bet&lt;/div&gt;&lt;div style=&quot;text-align: left;&quot;&gt;bool playing&lt;/div&gt;&lt;div style=&quot;text-align: left;&quot;&gt;&lt;b&gt;Methods:&lt;/b&gt;&lt;/div&gt;&lt;div style=&quot;text-align: left;&quot;&gt;ToString() - Converts info to a string&lt;/div&gt;" style="rounded=1;whiteSpace=wrap;html=1;fillColor=#76608a;fontColor=#ffffff;strokeColor=#432D57;fontFamily=Lucida Console;fontSize=14;" vertex="1" parent="1">
          <mxGeometry x="280" y="150" width="290" height="230" as="geometry" />
        </mxCell>
        <mxCell id="5F_fIKwz35ixUrEZGMle-11" value="PlayerStats&lt;div&gt;&lt;font face=&quot;Lucida Console&quot;&gt;&lt;span style=&quot;font-weight: normal;&quot;&gt;Stores a player&#39;s performance data&lt;/span&gt;&lt;/font&gt;&lt;/div&gt;&lt;div style=&quot;text-align: left;&quot;&gt;&lt;font face=&quot;Lucida Console&quot;&gt;&lt;span style=&quot;font-weight: normal;&quot;&gt;Fields:&lt;/span&gt;&lt;/font&gt;&lt;/div&gt;&lt;div style=&quot;text-align: left;&quot;&gt;&lt;font face=&quot;Lucida Console&quot;&gt;&lt;span style=&quot;font-weight: 400;&quot;&gt;int wins&lt;/span&gt;&lt;/font&gt;&lt;/div&gt;&lt;div style=&quot;text-align: left;&quot;&gt;&lt;font face=&quot;Lucida Console&quot;&gt;&lt;span style=&quot;font-weight: 400;&quot;&gt;int losses&lt;/span&gt;&lt;/font&gt;&lt;/div&gt;&lt;div style=&quot;text-align: left;&quot;&gt;&lt;font face=&quot;Lucida Console&quot;&gt;&lt;span style=&quot;font-weight: 400;&quot;&gt;int ties&lt;/span&gt;&lt;/font&gt;&lt;/div&gt;&lt;div style=&quot;text-align: left;&quot;&gt;&lt;font face=&quot;Lucida Console&quot;&gt;&lt;span style=&quot;font-weight: 400;&quot;&gt;Properties:&lt;/span&gt;&lt;/font&gt;&lt;/div&gt;&lt;div style=&quot;text-align: left;&quot;&gt;&lt;font face=&quot;Lucida Console&quot;&gt;&lt;span style=&quot;font-weight: 400;&quot;&gt;int WinRatio&lt;/span&gt;&lt;/font&gt;&lt;/div&gt;" style="rounded=1;whiteSpace=wrap;html=1;fillColor=#ffcd28;strokeColor=#d79b00;gradientColor=#ffa500;fontStyle=1" vertex="1" parent="1">
          <mxGeometry x="600" y="185" width="230" height="160" as="geometry" />
        </mxCell>
        <mxCell id="5F_fIKwz35ixUrEZGMle-20" value="" style="edgeStyle=orthogonalEdgeStyle;rounded=0;orthogonalLoop=1;jettySize=auto;html=1;" edge="1" parent="1" source="5F_fIKwz35ixUrEZGMle-14" target="5F_fIKwz35ixUrEZGMle-19">
          <mxGeometry relative="1" as="geometry" />
        </mxCell>
        <mxCell id="5F_fIKwz35ixUrEZGMle-14" value="Hand&lt;div&gt;Stores a collection of cards and is responsible for actions upon it&lt;/div&gt;&lt;div style=&quot;text-align: left;&quot;&gt;Fields:&amp;nbsp;&lt;/div&gt;&lt;div style=&quot;text-align: left;&quot;&gt;List&amp;lt;Card&amp;gt; hand&lt;/div&gt;&lt;div style=&quot;text-align: left;&quot;&gt;Properties:&lt;/div&gt;&lt;div style=&quot;text-align: left;&quot;&gt;Size&lt;/div&gt;&lt;div style=&quot;text-align: left;&quot;&gt;Value&lt;/div&gt;&lt;div style=&quot;text-align: left;&quot;&gt;Methods:&lt;/div&gt;&lt;div style=&quot;text-align: left;&quot;&gt;ToString() - Converts info to a string&lt;/div&gt;&lt;div style=&quot;text-align: left;&quot;&gt;AddCard() - Adds a card&lt;/div&gt;&lt;div style=&quot;text-align: left;&quot;&gt;RemoveCard() - Removes a card&lt;/div&gt;&lt;div style=&quot;text-align: left;&quot;&gt;Contains() - Checks if a certain card is in the hand&lt;/div&gt;&lt;div style=&quot;text-align: left;&quot;&gt;Sort() - Sorts the hand&lt;/div&gt;" style="rounded=1;whiteSpace=wrap;html=1;fillColor=#e6d0de;gradientColor=#d5739d;strokeColor=#996185;fontFamily=Lucida Console;" vertex="1" parent="1">
          <mxGeometry x="240" y="-170" width="370" height="270" as="geometry" />
        </mxCell>
        <mxCell id="5F_fIKwz35ixUrEZGMle-17" value="Deck&lt;div&gt;Contains and defines the behavior of a deck of cards&lt;/div&gt;&lt;div style=&quot;text-align: left;&quot;&gt;Fields:&lt;/div&gt;&lt;div style=&quot;text-align: left;&quot;&gt;LIst&amp;lt;Card&amp;gt; cardLIst&lt;/div&gt;&lt;div style=&quot;text-align: left;&quot;&gt;Random random&lt;/div&gt;&lt;div style=&quot;text-align: left;&quot;&gt;Methods:&lt;/div&gt;&lt;div style=&quot;text-align: left;&quot;&gt;ToString() - Returns the amount of cards left in the deck&lt;/div&gt;&lt;div style=&quot;text-align: left;&quot;&gt;Draw() - Removes and returns the top card in the deck&lt;/div&gt;&lt;div style=&quot;text-align: left;&quot;&gt;Peek() - Returns the top card in the deck&lt;/div&gt;&lt;div style=&quot;text-align: left;&quot;&gt;PlaceOnTop() - Places a card to the top of the deck&lt;/div&gt;&lt;div style=&quot;text-align: left;&quot;&gt;Shuffle - Shuffles the deck&lt;/div&gt;" style="rounded=1;whiteSpace=wrap;html=1;fillColor=#dae8fc;strokeColor=#6c8ebf;fontSize=15;" vertex="1" parent="1">
          <mxGeometry x="-670" y="140" width="350" height="290" as="geometry" />
        </mxCell>
        <mxCell id="5F_fIKwz35ixUrEZGMle-22" value="" style="edgeStyle=orthogonalEdgeStyle;rounded=0;orthogonalLoop=1;jettySize=auto;html=1;" edge="1" parent="1" source="5F_fIKwz35ixUrEZGMle-19" target="5F_fIKwz35ixUrEZGMle-21">
          <mxGeometry relative="1" as="geometry" />
        </mxCell>
        <mxCell id="5F_fIKwz35ixUrEZGMle-24" value="" style="edgeStyle=orthogonalEdgeStyle;rounded=0;orthogonalLoop=1;jettySize=auto;html=1;" edge="1" parent="1" source="5F_fIKwz35ixUrEZGMle-19" target="5F_fIKwz35ixUrEZGMle-23">
          <mxGeometry relative="1" as="geometry" />
        </mxCell>
        <mxCell id="5F_fIKwz35ixUrEZGMle-19" value="&lt;b&gt;Card&lt;/b&gt;&lt;div&gt;&lt;b&gt;Stores information about an individual card&lt;/b&gt;&lt;/div&gt;&lt;div style=&quot;text-align: left;&quot;&gt;&lt;b&gt;Fields:&amp;nbsp;&lt;/b&gt;&lt;/div&gt;&lt;div style=&quot;text-align: left;&quot;&gt;&lt;b&gt;Rank rank&lt;/b&gt;&lt;/div&gt;&lt;div style=&quot;text-align: left;&quot;&gt;&lt;b&gt;Suit suit&lt;/b&gt;&lt;/div&gt;&lt;div style=&quot;text-align: left;&quot;&gt;&lt;b&gt;ConsoleColor color&lt;/b&gt;&lt;/div&gt;&lt;div style=&quot;text-align: left;&quot;&gt;&lt;b&gt;bool hidden&lt;/b&gt;&lt;/div&gt;&lt;div style=&quot;text-align: left;&quot;&gt;&lt;b&gt;Methods:&lt;/b&gt;&lt;/div&gt;&lt;div style=&quot;text-align: left;&quot;&gt;&lt;b&gt;ToString() - Formats information into a string&lt;/b&gt;&lt;/div&gt;&lt;div style=&quot;text-align: left;&quot;&gt;&lt;b&gt;Equals() - Checks if a card is equal to another&lt;/b&gt;&lt;/div&gt;&lt;div style=&quot;text-align: left;&quot;&gt;&lt;b&gt;Operators: &amp;gt;, &amp;lt;, &amp;gt;=, &amp;lt;=, == , !=&lt;/b&gt;&lt;/div&gt;" style="whiteSpace=wrap;html=1;fontFamily=Lucida Console;fillColor=#e6d0de;strokeColor=#996185;rounded=1;gradientColor=#d5739d;" vertex="1" parent="1">
          <mxGeometry x="240" y="-460" width="370" height="220" as="geometry" />
        </mxCell>
        <mxCell id="5F_fIKwz35ixUrEZGMle-21" value="Rank&lt;div&gt;Enum that stores the possible ranks of a card and their values&lt;/div&gt;" style="whiteSpace=wrap;html=1;fontFamily=Lucida Console;fillColor=#e6d0de;strokeColor=#996185;rounded=1;gradientColor=#d5739d;" vertex="1" parent="1">
          <mxGeometry x="760" y="-540" width="175" height="160" as="geometry" />
        </mxCell>
        <mxCell id="5F_fIKwz35ixUrEZGMle-23" value="Suit&lt;div&gt;Enum that stores all card suits&lt;/div&gt;" style="whiteSpace=wrap;html=1;fontFamily=Lucida Console;fillColor=#e6d0de;strokeColor=#996185;rounded=1;gradientColor=#d5739d;" vertex="1" parent="1">
          <mxGeometry x="757.5" y="-330" width="180" height="110" as="geometry" />
        </mxCell>
        <mxCell id="5F_fIKwz35ixUrEZGMle-25" value="Leaderboard&lt;div&gt;Class that handles a list of players&lt;/div&gt;&lt;div style=&quot;text-align: left;&quot;&gt;Fields:&lt;/div&gt;&lt;div style=&quot;text-align: left;&quot;&gt;List&amp;lt;Player&amp;gt; players&lt;/div&gt;&lt;div style=&quot;text-align: left;&quot;&gt;Methods:&lt;/div&gt;&lt;div style=&quot;text-align: left;&quot;&gt;Add() -Adds a player to the leaderboard&amp;nbsp;&lt;/div&gt;&lt;div style=&quot;text-align: left;&quot;&gt;Sort() - Sorts the leaderboard&lt;/div&gt;&lt;div style=&quot;text-align: left;&quot;&gt;Remove() - Removes a player from the leaderboard&lt;/div&gt;&lt;div style=&quot;text-align: left;&quot;&gt;ToString() - Formats the leaderboard for output&lt;/div&gt;" style="whiteSpace=wrap;html=1;fillColor=#a0522d;strokeColor=#6D1F00;fontColor=#ffffff;rounded=1;fontSize=15;" vertex="1" parent="1">
          <mxGeometry x="-163.75" y="500" width="297.5" height="245" as="geometry" />
        </mxCell>
      </root>
    </mxGraphModel>
  </diagram>
</mxfile>
